<mxfile host="app.diagrams.net" modified="2022-04-13T02:22:14.264Z" agent="5.0 (Windows NT 10.0; Win64; x64) AppleWebKit/537.36 (KHTML, like Gecko) Chrome/100.0.4896.75 Safari/537.36" etag="CJPMri06mqxAu7NAjF6F" version="17.4.2" type="github">
  <diagram id="onZcjAR-X5oleP2PKHOP" name="Page-1">
    <mxGraphModel dx="868" dy="450" grid="1" gridSize="10" guides="1" tooltips="1" connect="1" arrows="1" fold="1" page="1" pageScale="1" pageWidth="850" pageHeight="1100" math="0" shadow="0">
      <root>
        <mxCell id="0" />
        <mxCell id="1" parent="0" />
        <mxCell id="CmdUL2k6a5vJ8nuBFKxs-1" value="3x1" style="ellipse;whiteSpace=wrap;html=1;aspect=fixed;" vertex="1" parent="1">
          <mxGeometry x="140" y="300" width="80" height="80" as="geometry" />
        </mxCell>
        <mxCell id="CmdUL2k6a5vJ8nuBFKxs-2" value="" style="endArrow=classic;html=1;rounded=0;entryX=0;entryY=0.5;entryDx=0;entryDy=0;exitX=1;exitY=0.5;exitDx=0;exitDy=0;" edge="1" parent="1" source="CmdUL2k6a5vJ8nuBFKxs-3" target="CmdUL2k6a5vJ8nuBFKxs-1">
          <mxGeometry width="50" height="50" relative="1" as="geometry">
            <mxPoint x="70" y="340" as="sourcePoint" />
            <mxPoint x="90" y="320" as="targetPoint" />
          </mxGeometry>
        </mxCell>
        <mxCell id="CmdUL2k6a5vJ8nuBFKxs-3" value="1" style="rounded=1;whiteSpace=wrap;html=1;" vertex="1" parent="1">
          <mxGeometry x="10" y="330" width="40" height="20" as="geometry" />
        </mxCell>
        <mxCell id="CmdUL2k6a5vJ8nuBFKxs-5" value="" style="endArrow=classic;html=1;rounded=0;entryX=0.5;entryY=0;entryDx=0;entryDy=0;exitX=0.5;exitY=1;exitDx=0;exitDy=0;" edge="1" parent="1" source="CmdUL2k6a5vJ8nuBFKxs-6" target="CmdUL2k6a5vJ8nuBFKxs-1">
          <mxGeometry width="50" height="50" relative="1" as="geometry">
            <mxPoint x="180" y="220" as="sourcePoint" />
            <mxPoint x="200" y="240" as="targetPoint" />
          </mxGeometry>
        </mxCell>
        <mxCell id="CmdUL2k6a5vJ8nuBFKxs-6" value="3" style="rounded=1;whiteSpace=wrap;html=1;" vertex="1" parent="1">
          <mxGeometry x="160" y="180" width="40" height="20" as="geometry" />
        </mxCell>
        <mxCell id="CmdUL2k6a5vJ8nuBFKxs-7" value="" style="endArrow=classic;html=1;rounded=0;exitX=0.494;exitY=1;exitDx=0;exitDy=0;exitPerimeter=0;" edge="1" parent="1" source="CmdUL2k6a5vJ8nuBFKxs-1">
          <mxGeometry width="50" height="50" relative="1" as="geometry">
            <mxPoint x="179.5" y="390" as="sourcePoint" />
            <mxPoint x="180" y="480" as="targetPoint" />
          </mxGeometry>
        </mxCell>
        <mxCell id="CmdUL2k6a5vJ8nuBFKxs-8" value="" style="endArrow=classic;html=1;rounded=0;entryX=0;entryY=0.5;entryDx=0;entryDy=0;exitX=1;exitY=0.5;exitDx=0;exitDy=0;" edge="1" parent="1" source="CmdUL2k6a5vJ8nuBFKxs-1" target="CmdUL2k6a5vJ8nuBFKxs-9">
          <mxGeometry width="50" height="50" relative="1" as="geometry">
            <mxPoint x="230" y="339.5" as="sourcePoint" />
            <mxPoint x="320" y="339.5" as="targetPoint" />
          </mxGeometry>
        </mxCell>
        <mxCell id="CmdUL2k6a5vJ8nuBFKxs-9" value="4x1" style="ellipse;whiteSpace=wrap;html=1;aspect=fixed;" vertex="1" parent="1">
          <mxGeometry x="310" y="300" width="80" height="80" as="geometry" />
        </mxCell>
        <mxCell id="CmdUL2k6a5vJ8nuBFKxs-10" value="" style="endArrow=classic;html=1;rounded=0;entryX=0.5;entryY=0;entryDx=0;entryDy=0;exitX=0.5;exitY=1;exitDx=0;exitDy=0;" edge="1" parent="1" source="CmdUL2k6a5vJ8nuBFKxs-11" target="CmdUL2k6a5vJ8nuBFKxs-9">
          <mxGeometry width="50" height="50" relative="1" as="geometry">
            <mxPoint x="350" y="190" as="sourcePoint" />
            <mxPoint x="349.5" y="290" as="targetPoint" />
          </mxGeometry>
        </mxCell>
        <mxCell id="CmdUL2k6a5vJ8nuBFKxs-11" value="4x2" style="ellipse;whiteSpace=wrap;html=1;aspect=fixed;" vertex="1" parent="1">
          <mxGeometry x="310" y="120" width="80" height="80" as="geometry" />
        </mxCell>
        <mxCell id="CmdUL2k6a5vJ8nuBFKxs-12" value="" style="endArrow=classic;html=1;rounded=0;entryX=0;entryY=0.5;entryDx=0;entryDy=0;exitX=1;exitY=0.5;exitDx=0;exitDy=0;" edge="1" parent="1" source="CmdUL2k6a5vJ8nuBFKxs-13" target="CmdUL2k6a5vJ8nuBFKxs-11">
          <mxGeometry width="50" height="50" relative="1" as="geometry">
            <mxPoint x="230" y="140" as="sourcePoint" />
            <mxPoint x="300" y="140" as="targetPoint" />
          </mxGeometry>
        </mxCell>
        <mxCell id="CmdUL2k6a5vJ8nuBFKxs-13" value="2" style="rounded=1;whiteSpace=wrap;html=1;" vertex="1" parent="1">
          <mxGeometry x="160" y="150" width="40" height="20" as="geometry" />
        </mxCell>
        <mxCell id="CmdUL2k6a5vJ8nuBFKxs-14" value="" style="endArrow=classic;html=1;rounded=0;exitX=1;exitY=0.5;exitDx=0;exitDy=0;entryX=0;entryY=0.5;entryDx=0;entryDy=0;" edge="1" parent="1" source="CmdUL2k6a5vJ8nuBFKxs-11" target="CmdUL2k6a5vJ8nuBFKxs-35">
          <mxGeometry width="50" height="50" relative="1" as="geometry">
            <mxPoint x="410" y="139.5" as="sourcePoint" />
            <mxPoint x="490" y="160" as="targetPoint" />
          </mxGeometry>
        </mxCell>
        <mxCell id="CmdUL2k6a5vJ8nuBFKxs-15" value="" style="endArrow=classic;html=1;rounded=0;entryX=0.5;entryY=0;entryDx=0;entryDy=0;exitX=0.5;exitY=1;exitDx=0;exitDy=0;" edge="1" parent="1" source="CmdUL2k6a5vJ8nuBFKxs-16" target="CmdUL2k6a5vJ8nuBFKxs-11">
          <mxGeometry width="50" height="50" relative="1" as="geometry">
            <mxPoint x="350" y="50" as="sourcePoint" />
            <mxPoint x="349.5" y="110" as="targetPoint" />
          </mxGeometry>
        </mxCell>
        <mxCell id="CmdUL2k6a5vJ8nuBFKxs-16" value="4" style="rounded=1;whiteSpace=wrap;html=1;" vertex="1" parent="1">
          <mxGeometry x="330" y="10" width="40" height="20" as="geometry" />
        </mxCell>
        <mxCell id="CmdUL2k6a5vJ8nuBFKxs-17" value="" style="endArrow=classic;html=1;rounded=0;exitX=1;exitY=0.5;exitDx=0;exitDy=0;" edge="1" parent="1" source="CmdUL2k6a5vJ8nuBFKxs-9">
          <mxGeometry width="50" height="50" relative="1" as="geometry">
            <mxPoint x="420" y="339.5" as="sourcePoint" />
            <mxPoint x="490" y="340" as="targetPoint" />
          </mxGeometry>
        </mxCell>
        <mxCell id="CmdUL2k6a5vJ8nuBFKxs-18" value="" style="endArrow=classic;html=1;rounded=0;exitX=0.5;exitY=1;exitDx=0;exitDy=0;entryX=0.5;entryY=0;entryDx=0;entryDy=0;" edge="1" parent="1" source="CmdUL2k6a5vJ8nuBFKxs-9" target="CmdUL2k6a5vJ8nuBFKxs-32">
          <mxGeometry width="50" height="50" relative="1" as="geometry">
            <mxPoint x="349.5" y="390" as="sourcePoint" />
            <mxPoint x="350" y="480" as="targetPoint" />
          </mxGeometry>
        </mxCell>
        <mxCell id="CmdUL2k6a5vJ8nuBFKxs-19" value="60°C" style="text;html=1;strokeColor=none;fillColor=none;align=center;verticalAlign=middle;whiteSpace=wrap;rounded=0;" vertex="1" parent="1">
          <mxGeometry x="60" y="310" width="60" height="30" as="geometry" />
        </mxCell>
        <mxCell id="CmdUL2k6a5vJ8nuBFKxs-20" value="160°C" style="text;html=1;strokeColor=none;fillColor=none;align=center;verticalAlign=middle;whiteSpace=wrap;rounded=0;" vertex="1" parent="1">
          <mxGeometry x="170" y="240" width="60" height="30" as="geometry" />
        </mxCell>
        <mxCell id="CmdUL2k6a5vJ8nuBFKxs-21" value="93,33°C" style="text;html=1;strokeColor=none;fillColor=none;align=center;verticalAlign=middle;whiteSpace=wrap;rounded=0;" vertex="1" parent="1">
          <mxGeometry x="180" y="410" width="60" height="30" as="geometry" />
        </mxCell>
        <mxCell id="CmdUL2k6a5vJ8nuBFKxs-22" value="136,90°C" style="text;html=1;strokeColor=none;fillColor=none;align=center;verticalAlign=middle;whiteSpace=wrap;rounded=0;" vertex="1" parent="1">
          <mxGeometry x="230" y="310" width="60" height="30" as="geometry" />
        </mxCell>
        <mxCell id="CmdUL2k6a5vJ8nuBFKxs-23" value="325,64 kW" style="text;html=1;strokeColor=none;fillColor=none;align=center;verticalAlign=middle;whiteSpace=wrap;rounded=0;" vertex="1" parent="1">
          <mxGeometry x="110" y="280" width="60" height="30" as="geometry" />
        </mxCell>
        <mxCell id="CmdUL2k6a5vJ8nuBFKxs-24" value="248,89°C" style="text;html=1;strokeColor=none;fillColor=none;align=center;verticalAlign=middle;whiteSpace=wrap;rounded=0;" vertex="1" parent="1">
          <mxGeometry x="350" y="50" width="60" height="30" as="geometry" />
        </mxCell>
        <mxCell id="CmdUL2k6a5vJ8nuBFKxs-25" value="115,56°C" style="text;html=1;strokeColor=none;fillColor=none;align=center;verticalAlign=middle;whiteSpace=wrap;rounded=0;" vertex="1" parent="1">
          <mxGeometry x="230" y="130" width="60" height="30" as="geometry" />
        </mxCell>
        <mxCell id="CmdUL2k6a5vJ8nuBFKxs-26" value="238,89°C" style="text;html=1;strokeColor=none;fillColor=none;align=center;verticalAlign=middle;whiteSpace=wrap;rounded=0;" vertex="1" parent="1">
          <mxGeometry x="400" y="130" width="60" height="30" as="geometry" />
        </mxCell>
        <mxCell id="CmdUL2k6a5vJ8nuBFKxs-27" value="175,20°C" style="text;html=1;strokeColor=none;fillColor=none;align=center;verticalAlign=middle;whiteSpace=wrap;rounded=0;" vertex="1" parent="1">
          <mxGeometry x="350" y="220" width="60" height="30" as="geometry" />
        </mxCell>
        <mxCell id="CmdUL2k6a5vJ8nuBFKxs-28" value="160°C" style="text;html=1;strokeColor=none;fillColor=none;align=center;verticalAlign=middle;whiteSpace=wrap;rounded=0;" vertex="1" parent="1">
          <mxGeometry x="400" y="310" width="60" height="30" as="geometry" />
        </mxCell>
        <mxCell id="CmdUL2k6a5vJ8nuBFKxs-29" value="158,51°C" style="text;html=1;strokeColor=none;fillColor=none;align=center;verticalAlign=middle;whiteSpace=wrap;rounded=0;" vertex="1" parent="1">
          <mxGeometry x="350" y="400" width="60" height="30" as="geometry" />
        </mxCell>
        <mxCell id="CmdUL2k6a5vJ8nuBFKxs-30" value="431,93 kW" style="text;html=1;strokeColor=none;fillColor=none;align=center;verticalAlign=middle;whiteSpace=wrap;rounded=0;" vertex="1" parent="1">
          <mxGeometry x="280" y="90" width="70" height="30" as="geometry" />
        </mxCell>
        <mxCell id="CmdUL2k6a5vJ8nuBFKxs-31" value="97,85 kW" style="text;html=1;strokeColor=none;fillColor=none;align=center;verticalAlign=middle;whiteSpace=wrap;rounded=0;" vertex="1" parent="1">
          <mxGeometry x="280" y="270" width="70" height="30" as="geometry" />
        </mxCell>
        <mxCell id="CmdUL2k6a5vJ8nuBFKxs-32" value="" style="ellipse;whiteSpace=wrap;html=1;aspect=fixed;" vertex="1" parent="1">
          <mxGeometry x="325" y="480" width="50" height="50" as="geometry" />
        </mxCell>
        <mxCell id="CmdUL2k6a5vJ8nuBFKxs-33" value="" style="endArrow=classic;html=1;rounded=0;exitX=0.5;exitY=1;exitDx=0;exitDy=0;" edge="1" parent="1" source="CmdUL2k6a5vJ8nuBFKxs-32">
          <mxGeometry width="50" height="50" relative="1" as="geometry">
            <mxPoint x="349" y="540" as="sourcePoint" />
            <mxPoint x="350" y="620" as="targetPoint" />
          </mxGeometry>
        </mxCell>
        <mxCell id="CmdUL2k6a5vJ8nuBFKxs-34" value="137,78°C" style="text;html=1;strokeColor=none;fillColor=none;align=center;verticalAlign=middle;whiteSpace=wrap;rounded=0;" vertex="1" parent="1">
          <mxGeometry x="350" y="550" width="60" height="30" as="geometry" />
        </mxCell>
        <mxCell id="CmdUL2k6a5vJ8nuBFKxs-35" value="" style="ellipse;whiteSpace=wrap;html=1;aspect=fixed;" vertex="1" parent="1">
          <mxGeometry x="480" y="135" width="50" height="50" as="geometry" />
        </mxCell>
        <mxCell id="CmdUL2k6a5vJ8nuBFKxs-36" value="" style="endArrow=classic;html=1;rounded=0;exitX=1;exitY=0.48;exitDx=0;exitDy=0;exitPerimeter=0;" edge="1" parent="1" source="CmdUL2k6a5vJ8nuBFKxs-35">
          <mxGeometry width="50" height="50" relative="1" as="geometry">
            <mxPoint x="540" y="159" as="sourcePoint" />
            <mxPoint x="620" y="159" as="targetPoint" />
          </mxGeometry>
        </mxCell>
        <mxCell id="CmdUL2k6a5vJ8nuBFKxs-37" value="260°C" style="text;html=1;strokeColor=none;fillColor=none;align=center;verticalAlign=middle;whiteSpace=wrap;rounded=0;" vertex="1" parent="1">
          <mxGeometry x="540" y="130" width="60" height="30" as="geometry" />
        </mxCell>
        <mxCell id="CmdUL2k6a5vJ8nuBFKxs-38" value="" style="endArrow=classic;html=1;rounded=0;fillColor=#0050ef;strokeColor=#001DBC;" edge="1" parent="1">
          <mxGeometry width="50" height="50" relative="1" as="geometry">
            <mxPoint x="325" y="545" as="sourcePoint" />
            <mxPoint x="375" y="465" as="targetPoint" />
            <Array as="points">
              <mxPoint x="365" y="515" />
              <mxPoint x="355" y="505" />
              <mxPoint x="345" y="495" />
            </Array>
          </mxGeometry>
        </mxCell>
        <mxCell id="CmdUL2k6a5vJ8nuBFKxs-39" value="" style="endArrow=classic;html=1;rounded=0;fillColor=#e51400;strokeColor=#B20000;" edge="1" parent="1">
          <mxGeometry width="50" height="50" relative="1" as="geometry">
            <mxPoint x="480" y="200" as="sourcePoint" />
            <mxPoint x="530" y="120" as="targetPoint" />
            <Array as="points">
              <mxPoint x="520" y="170" />
              <mxPoint x="510" y="160" />
              <mxPoint x="500" y="150" />
            </Array>
          </mxGeometry>
        </mxCell>
        <mxCell id="CmdUL2k6a5vJ8nuBFKxs-40" value="121,49 kW" style="text;html=1;strokeColor=none;fillColor=none;align=center;verticalAlign=middle;whiteSpace=wrap;rounded=0;" vertex="1" parent="1">
          <mxGeometry x="375" y="490" width="70" height="30" as="geometry" />
        </mxCell>
        <mxCell id="CmdUL2k6a5vJ8nuBFKxs-41" value="71,34 kW" style="text;html=1;strokeColor=none;fillColor=none;align=center;verticalAlign=middle;whiteSpace=wrap;rounded=0;" vertex="1" parent="1">
          <mxGeometry x="460" y="100" width="70" height="30" as="geometry" />
        </mxCell>
      </root>
    </mxGraphModel>
  </diagram>
</mxfile>
